<svg width="46" height="46" viewBox="0 0 46 46" fill="none" xmlns="http://www.w3.org/2000/svg">
<g clip-path="url(#clip0_2_647)">
<path d="M45.9081 22.5485C41.9937 13.3451 33.0015 7.39807 23 7.39807C12.9985 7.39807 4.00649 13.3449 0.0919102 22.5485C-0.0306367 22.8366 -0.0306367 23.1619 0.0919102 23.4499C4.00622 32.6544 12.9983 38.6019 23 38.6019C33.0019 38.6019 41.994 32.6544 45.9081 23.4499C46.0306 23.1619 46.0306 22.8366 45.9081 22.5485ZM23 36.2988C14.088 36.2988 6.05933 31.0949 2.40862 22.9993C6.05942 14.9046 14.0883 9.70122 23 9.70122C31.9119 9.70122 39.9407 14.9046 43.5914 22.9992C39.9407 31.0947 31.912 36.2988 23 36.2988Z" fill="white"/>
<path d="M23 14.1796C18.1364 14.1796 14.1797 18.1364 14.1797 22.9999C14.1797 27.8634 18.1365 31.8202 23 31.8202C27.8635 31.8202 31.8203 27.8635 31.8203 22.9999C31.8203 18.1363 27.8635 14.1796 23 14.1796ZM23 29.5173C19.4064 29.5173 16.4827 26.5936 16.4827 23.0001C16.4827 19.4065 19.4064 16.4828 23 16.4828C26.5936 16.4828 29.5173 19.4065 29.5173 23.0001C29.5173 26.5936 26.5936 29.5173 23 29.5173Z" fill="white"/>
<path d="M22.9998 18.3171C20.4178 18.3171 18.3169 20.4179 18.3169 23.0001C18.3169 23.636 18.8323 24.1516 19.4684 24.1516C20.1045 24.1516 20.6199 23.636 20.6199 23.0001C20.6199 21.6878 21.6875 20.6202 22.9998 20.6202C23.6359 20.6202 24.1513 20.1046 24.1513 19.4687C24.1513 18.8326 23.6357 18.3171 22.9998 18.3171Z" fill="white"/>
</g>
<defs>
<clipPath id="clip0_2_647">
<rect width="46" height="46" fill="white"/>
</clipPath>
</defs>
</svg>
