<svg width="35" height="35" viewBox="0 0 35 35" fill="none" xmlns="http://www.w3.org/2000/svg">
<circle cx="17.5" cy="17.5" r="17.5" fill="black"/>
<line x1="16" y1="10.5" x2="11" y2="10.5" stroke="white"/>
<line y1="-0.5" x2="5" y2="-0.5" transform="matrix(-1 8.74227e-08 8.74227e-08 1 16 24)" stroke="white"/>
<line x1="10.5" y1="16" x2="10.5" y2="10" stroke="white"/>
<line y1="-0.5" x2="6" y2="-0.5" transform="matrix(4.37114e-08 1 1 -4.37114e-08 11 18)" stroke="white"/>
<line y1="-0.5" x2="5" y2="-0.5" transform="matrix(1 -8.74227e-08 -8.74227e-08 -1 20 10)" stroke="white"/>
<line y1="-0.5" x2="6" y2="-0.5" transform="matrix(-4.37114e-08 -1 -1 4.37114e-08 25 16)" stroke="white"/>
<line x1="20" y1="23.5" x2="25" y2="23.5" stroke="white"/>
<line x1="25.5" y1="18" x2="25.5" y2="24" stroke="white"/>
</svg>
